<svg width="28" height="23" viewBox="0 0 28 23" fill="none" xmlns="http://www.w3.org/2000/svg">
<path d="M21.1377 0C24.4514 0 27.1377 2.68629 27.1377 6V17C27.1377 20.3137 24.4514 23 21.1377 23H6.1377C2.82399 23 0.137695 20.3137 0.137695 17V6C0.137695 2.68629 2.82399 2.41596e-08 6.1377 0H21.1377ZM20.9912 6.64648C20.7959 6.45122 20.4794 6.45122 20.2842 6.64648L17.1758 9.75488C14.9754 11.9553 11.3889 11.8931 9.26562 9.61816L6.50293 6.65918C6.31452 6.45732 5.99875 6.44638 5.79688 6.63477C5.59501 6.82317 5.58408 7.13894 5.77246 7.34082L8.53418 10.3008C11.0435 12.9894 15.2823 13.0624 17.8828 10.4619L20.9912 7.35352C21.1865 7.15825 21.1865 6.84175 20.9912 6.64648Z" fill="white"/>
</svg>
