<svg width="24" height="28" viewBox="0 0 24 28" fill="none" xmlns="http://www.w3.org/2000/svg">
<path d="M2.71387 3.88672C7.23922 -1.47847 17.0279 -1.25731 21.2461 4.35254C21.6017 4.82554 21.9118 5.31241 22.1807 5.7998C23.7052 8.56393 23.7116 11.9137 22.8154 14.9404C21.3415 19.9183 18.3123 23.7344 16.6377 25.2803C13.0379 28.08 9.63769 27.5135 7.6377 25.7803C1.63797 20.5805 0.13783 13.9472 0.137695 11.2803C0.314734 7.91653 1.30652 5.55526 2.71387 3.88672ZM11.6377 7.28027C9.15241 7.28027 7.1377 9.29499 7.1377 11.7803C7.13789 14.2654 9.15253 16.2803 11.6377 16.2803C14.1229 16.2803 16.1375 14.2654 16.1377 11.7803C16.1377 9.29499 14.123 7.28027 11.6377 7.28027Z" fill="white"/>
</svg>
