<svg width="31" height="30" viewBox="0 0 31 30" fill="none" xmlns="http://www.w3.org/2000/svg">
<path d="M11.1984 12.5607L16.1377 17.5L11.6377 21.5C9.79202 19.885 7.0814 16.5291 4.6379 13.2742C1.97071 9.72131 2.53537 4.76217 5.78316 1.7309L6.00943 1.51972C6.87898 0.708139 8.2604 0.830274 8.97406 1.78183L12.8571 6.95925C13.305 7.55643 13.2456 8.39207 12.7178 8.9199L11.1984 10.4393C10.6126 11.0251 10.6126 11.9749 11.1984 12.5607Z" fill="white"/>
<path d="M13.1377 23L17.6377 19L18.5902 19.4762C19.2058 19.7841 19.9519 19.6334 20.3999 19.1108L21.3699 17.9791C22.0754 17.156 23.3082 17.0448 24.1496 17.7284L28.0561 20.9024C29.4367 22.0242 29.5435 24.0942 28.2856 25.3521L27.403 26.2347C25.453 28.1847 22.474 28.6681 20.0074 27.4348C18.7626 26.8125 17.5653 26.0993 16.4252 25.3013L13.1377 23Z" fill="white"/>
</svg>
